<svg width="340" height="340" viewBox="0 0 340 340" fill="none" xmlns="http://www.w3.org/2000/svg">
<rect width="340" height="340" rx="49" fill="#058E3A"/>
<path d="M17 142.258C69.354 125.613 203.85 102.31 323 142.258M46.7876 86.7742L71.1593 170M30.5398 111.742L44.0796 158.903M290.504 84L266.133 170M306.752 111.742L293.212 158.903" stroke="white" stroke-width="9" stroke-linecap="round"/>
<path d="M203.5 169.5C203.5 187.718 188.509 202.5 170 202.5C151.491 202.5 136.5 187.718 136.5 169.5C136.5 151.282 151.491 136.5 170 136.5C188.509 136.5 203.5 151.282 203.5 169.5Z" fill="white" stroke="white"/>
<path d="M153 191.883C141.147 184.758 119.812 144.387 113.044 134.888C106.276 125.389 86.1558 129.526 89.3388 149.137C92.5219 168.747 132.762 239.378 129.638 275" stroke="white" stroke-width="11" stroke-linecap="round"/>
<path d="M184 191.883C195.853 184.758 217.188 144.387 223.956 134.888C230.724 125.389 250.844 129.526 247.661 149.137C244.478 168.747 204.238 239.378 207.362 275" stroke="white" stroke-width="11" stroke-linecap="round"/>
</svg>
