<svg width="956" height="187" viewBox="0 0 956 187" fill="none" xmlns="http://www.w3.org/2000/svg">
<path d="M744 159V141.6H758.455V93.75H744V72H797V93.75H782.545V141.6H797V159H744Z" fill="#058E3A" stroke="#058E3A" stroke-linejoin="round"/>
<path d="M404 159V141.6H418.455V93.75H404V72H457V93.75H442.545V141.6H457V159H404Z" fill="#058E3A" stroke="#058E3A" stroke-linejoin="round"/>
<path d="M653 159V72H670.333L696.333 106.8V72H718V159H696.333L674.667 124.2V159H653Z" fill="#058E3A" stroke="#058E3A" stroke-linejoin="round"/>
<path d="M5 58.5161C53.2478 43.2258 177.195 21.8194 287 58.5161M32.4513 7.54839L54.9115 84M17.4779 30.4839L29.9558 73.8065M257.053 5L234.593 84M272.027 30.4839L259.549 73.8065" stroke="#058E3A" stroke-width="9" stroke-linecap="round"/>
<circle cx="146" cy="84" r="30.5" fill="#058E3A" stroke="#058E3A"/>
<path d="M130 104.188C119.073 97.6042 99.405 60.2956 93.1658 51.5171C86.9267 42.7386 68.378 46.5618 71.3123 64.6848C74.2467 82.8079 111.343 148.081 108.463 181" stroke="#058E3A" stroke-width="11" stroke-linecap="round"/>
<path d="M159 104.188C169.927 97.6042 189.595 60.2956 195.834 51.5171C202.073 42.7386 220.622 46.5618 217.688 64.6848C214.753 82.8079 177.657 148.081 180.537 181" stroke="#058E3A" stroke-width="11" stroke-linecap="round"/>
<path d="M325 159H351.5V128.55H369.167V106.8H351.5V93.75H378V72H325V159Z" fill="#058E3A" stroke="#058E3A" stroke-linejoin="round"/>
<path d="M519.692 159H499.308V93.75H483V72H536V93.75H519.692V159Z" fill="#058E3A" stroke="#058E3A" stroke-linejoin="round"/>
<path d="M859.692 159H839.308V93.75H823V72H876V93.75H859.692V159Z" fill="#058E3A" stroke="#058E3A" stroke-linejoin="round"/>
<path d="M562 141.6V72H586.375V132.9C586.375 134.35 588 137.25 594.5 137.25C601 137.25 602.625 134.35 602.625 132.9V72H627V141.6C627 155.52 613.458 159 606.688 159H582.312C566.062 159 562 147.4 562 141.6Z" fill="#058E3A" stroke="#058E3A" stroke-linejoin="round"/>
<path d="M902 159V72H955V89.4H926.091V106.8H945.364V124.2H926.091V141.6H955V159H902Z" fill="#058E3A" stroke="#058E3A" stroke-linejoin="round"/>
</svg>
