<svg width="292" height="267" viewBox="0 0 292 267" fill="none" xmlns="http://www.w3.org/2000/svg">
<path d="M5 58.5161C53.2478 43.2258 177.195 21.8194 287 58.5161M32.4513 7.54839L54.9115 84M17.4779 30.4839L29.9558 73.8065M257.053 5L234.593 84M272.027 30.4839L259.549 73.8065" stroke="white" stroke-width="9" stroke-linecap="round"/>
<circle cx="146" cy="84" r="30.5" fill="white" stroke="white"/>
<path d="M130 104.188C119.073 97.6042 99.405 60.2956 93.1658 51.5171C86.9267 42.7386 68.378 46.5618 71.3123 64.6848C74.2467 82.8079 111.343 148.081 108.463 181" stroke="white" stroke-width="11" stroke-linecap="round"/>
<path d="M159 104.188C169.927 97.6042 189.595 60.2956 195.834 51.5171C202.073 42.7386 220.622 46.5618 217.688 64.6848C214.753 82.8079 177.657 148.081 180.537 181" stroke="white" stroke-width="11" stroke-linecap="round"/>
<path d="M194 266V258.4H200.818V237.5H194V228H219V237.5H212.182V258.4H219V266H194Z" fill="white" stroke="white" stroke-linejoin="round"/>
<path d="M38 266V258.4H44.8182V237.5H38V228H63V237.5H56.1818V258.4H63V266H38Z" fill="white" stroke="white" stroke-linejoin="round"/>
<path d="M152 266V228H160L172 243.2V228H182V266H172L162 250.8V266H152Z" fill="white" stroke="white" stroke-linejoin="round"/>
<path d="M2 266H14V252.7H22V243.2H14V237.5H26V228H2V266Z" fill="white" stroke="white" stroke-linejoin="round"/>
<path d="M91.3077 266H81.6923V237.5H74V228H99V237.5H91.3077V266Z" fill="white" stroke="white" stroke-linejoin="round"/>
<path d="M247.308 266H237.692V237.5H230V228H255V237.5H247.308V266Z" fill="white" stroke="white" stroke-linejoin="round"/>
<path d="M111 258.4V228H122.25V254.6C122.25 255.233 123 256.5 126 256.5C129 256.5 129.75 255.233 129.75 254.6V228H141V258.4C141 264.48 134.75 266 131.625 266H120.375C112.875 266 111 260.933 111 258.4Z" fill="white" stroke="white" stroke-linejoin="round"/>
<path d="M267 266V228H291V235.6H277.909V243.2H286.636V250.8H277.909V258.4H291V266H267Z" fill="white" stroke="white" stroke-linejoin="round"/>
</svg>
