<svg width="292" height="263" viewBox="0 0 292 263" fill="none" xmlns="http://www.w3.org/2000/svg">
<path d="M5 58.5161C53.2478 43.2258 177.195 21.8194 287 58.5161M32.4513 7.54839L54.9115 84M17.4779 30.4839L29.9558 73.8065M257.053 5L234.593 84M272.027 30.4839L259.549 73.8065" stroke="#19B354" stroke-width="9" stroke-linecap="round"/>
<circle cx="146" cy="84" r="31" fill="#19B354"/>
<path d="M130 104.188C119.073 97.6042 99.405 60.2956 93.1658 51.5171C86.9267 42.7386 68.378 46.5618 71.3123 64.6848C74.2467 82.8079 111.343 148.081 108.463 181" stroke="#19B354" stroke-width="11" stroke-linecap="round"/>
<path d="M159 104.188C169.927 97.6042 189.595 60.2956 195.834 51.5171C202.073 42.7386 220.622 46.5618 217.688 64.6848C214.753 82.8079 177.657 148.081 180.537 181" stroke="#19B354" stroke-width="11" stroke-linecap="round"/>
<path d="M194 262V254.4H200.818V233.5H194V224H219V233.5H212.182V254.4H219V262H194Z" fill="#19B354" stroke="#19B354" stroke-linejoin="round"/>
<path d="M38 262V254.4H44.8182V233.5H38V224H63V233.5H56.1818V254.4H63V262H38Z" fill="#19B354" stroke="#19B354" stroke-linejoin="round"/>
<path d="M152 262V224H160L172 239.2V224H182V262H172L162 246.8V262H152Z" fill="#19B354" stroke="#19B354" stroke-linejoin="round"/>
<path d="M2 262H14V248.7H22V239.2H14V233.5H26V224H2V262Z" fill="#19B354" stroke="#19B354" stroke-linejoin="round"/>
<path d="M91.3077 262H81.6923V233.5H74V224H99V233.5H91.3077V262Z" fill="#19B354" stroke="#19B354" stroke-linejoin="round"/>
<path d="M247.308 262H237.692V233.5H230V224H255V233.5H247.308V262Z" fill="#19B354" stroke="#19B354" stroke-linejoin="round"/>
<path d="M111 254.4V224H122.25V250.6C122.25 251.233 123 252.5 126 252.5C129 252.5 129.75 251.233 129.75 250.6V224H141V254.4C141 260.48 134.75 262 131.625 262H120.375C112.875 262 111 256.933 111 254.4Z" fill="#19B354" stroke="#19B354" stroke-linejoin="round"/>
<path d="M267 262V224H291V231.6H277.909V239.2H286.636V246.8H277.909V254.4H291V262H267Z" fill="#19B354" stroke="#19B354" stroke-linejoin="round"/>
</svg>
