<svg width="292" height="187" viewBox="0 0 292 187" fill="none" xmlns="http://www.w3.org/2000/svg">
<path d="M5 58.5161C53.2478 43.2258 177.195 21.8194 287 58.5161M32.4513 7.54839L54.9115 84M17.4779 30.4839L29.9558 73.8065M257.053 5L234.593 84M272.027 30.4839L259.549 73.8065" stroke="white" stroke-width="9" stroke-linecap="round"/>
<circle cx="146" cy="84" r="30.5" fill="white" stroke="white"/>
<path d="M130 104.188C119.073 97.6042 99.405 60.2956 93.1658 51.5171C86.9267 42.7386 68.378 46.5618 71.3123 64.6848C74.2467 82.8079 111.343 148.081 108.463 181" stroke="white" stroke-width="11" stroke-linecap="round"/>
<path d="M159 104.188C169.927 97.6042 189.595 60.2956 195.834 51.5171C202.073 42.7386 220.622 46.5618 217.688 64.6848C214.753 82.8079 177.657 148.081 180.537 181" stroke="white" stroke-width="11" stroke-linecap="round"/>
</svg>
